<?xml version="1.0" encoding="UTF-8" standalone="no"?>
<!-- Created with Inkscape (http://www.inkscape.org/) -->

<svg
   width="300"
   height="1000"
   viewBox="0 0 300 1000"
   version="1.1"
   id="svg1"
   xmlns:xlink="http://www.w3.org/1999/xlink"
   xmlns="http://www.w3.org/2000/svg"
   xmlns:svg="http://www.w3.org/2000/svg">
  <defs
     id="defs1">
    <linearGradient
       id="linearGradient2">
      <stop
         style="stop-color:#e56910;stop-opacity:1;"
         offset="0.59537572"
         id="stop1" />
      <stop
         style="stop-color:#fedd00;stop-opacity:1;"
         offset="1"
         id="stop2" />
    </linearGradient>
    <linearGradient
       id="swatch25">
      <stop
         style="stop-color:#e56910;stop-opacity:1;"
         offset="0"
         id="stop25" />
    </linearGradient>
    <linearGradient
       id="linearGradient23">
      <stop
         style="stop-color:#e56910;stop-opacity:1;"
         offset="0"
         id="stop22" />
      <stop
         style="stop-color:#fedd00;stop-opacity:1;"
         offset="1"
         id="stop23" />
    </linearGradient>
    <linearGradient
       xlink:href="#linearGradient23"
       id="linearGradient22"
       gradientUnits="userSpaceOnUse"
       x1="15.952055"
       y1="12.394363"
       x2="15.952055"
       y2="-1.095015"
       gradientTransform="matrix(14.821524,0,0,14.821524,-7.9431859,263.64641)" />
    <linearGradient
       xlink:href="#swatch25"
       id="linearGradient25"
       x1="7.4579844"
       y1="21.752798"
       x2="24.542015"
       y2="21.752798"
       gradientUnits="userSpaceOnUse"
       gradientTransform="matrix(13.009464,0,0,13.009464,19.526815,321.45687)" />
    <linearGradient
       xlink:href="#swatch25"
       id="linearGradient26"
       gradientUnits="userSpaceOnUse"
       x1="12.095349"
       y1="28.116726"
       x2="19.904652"
       y2="28.116726"
       gradientTransform="matrix(13.009464,0,0,13.009464,29.948198,321.45686)" />
    <linearGradient
       xlink:href="#swatch25"
       id="linearGradient27"
       x1="13.520414"
       y1="18.484247"
       x2="18.479586"
       y2="18.484247"
       gradientUnits="userSpaceOnUse"
       gradientTransform="matrix(13.009464,0,0,13.009464,19.526815,321.45687)" />
    <linearGradient
       xlink:href="#linearGradient2"
       id="linearGradient1"
       gradientUnits="userSpaceOnUse"
       x1="16"
       y1="23.860699"
       x2="16"
       y2="-3.2503581"
       gradientTransform="matrix(13.009464,0,0,13.009464,19.526815,321.45687)" />
    <linearGradient
       xlink:href="#swatch25"
       id="linearGradient7"
       gradientTransform="matrix(13.424553,0,0,12.607209,29.948198,321.45686)"
       x1="11.721358"
       y1="27.980171"
       x2="13.788695"
       y2="27.980171"
       gradientUnits="userSpaceOnUse" />
  </defs>
  <g
     id="layer1">
    <path
       style="fill:#ffffff;fill-opacity:1;stroke-width:14.8215"
       d="m 140.04047,484.11658 66.0021,50.94899 -33.8116,2.77904 z"
       id="path4" />
    <path
       style="fill:none;fill-opacity:1;stroke:url(#linearGradient25);stroke-width:6.50473;stroke-dasharray:none;stroke-opacity:1"
       d="m 229.1917,733.6261 -56.3123,-36.80581 -2.9643,-76.90889 -49.90604,-27.65843 15.49434,-113.01795 71.43771,55.59223 -34.57336,2.05114 -36.39873,-57.52147"
       id="path1" />
    <path
       style="fill:none;fill-opacity:1;stroke:url(#linearGradient1);stroke-width:6.50473;stroke-linejoin:miter;stroke-dasharray:none"
       d="m 119.99008,585.09765 -58.894353,-61.72409 57.701753,12.95107 -61.055484,-81.98384 77.352214,24.55135 -61.670018,-45.13057 39.356408,-87.39822 7.28717,64.51555 56.9334,27.10536 52.37971,-33.25689"
       id="path2" />
    <path
       style="fill:none;fill-opacity:1;stroke:url(#linearGradient27);stroke-width:7.41076;stroke-dasharray:none"
       d="M 207.34467,652.77201 V 549.40675 l -6.83904,-14.32139 59.43068,-64.00333"
       id="path3" />
    <path
       style="fill:url(#linearGradient7);fill-opacity:1;stroke:url(#linearGradient26);stroke-width:6.50473;stroke-linecap:butt;stroke-linejoin:bevel;stroke-dasharray:none;stroke-opacity:1"
       d="m 199.34748,677.43022 12.97425,20.12477 -14.378,-9.45922 -8.19797,-9.33306 z"
       id="path5" />
    <path
       id="path6"
       style="fill:url(#linearGradient22);fill-opacity:1;stroke:none;stroke-width:0;stroke-linecap:butt;stroke-linejoin:miter;stroke-dasharray:none;stroke-opacity:1"
       d="m 229.20121,272.09931 c -0.52069,0.59909 -1.08568,1.33523 -1.70795,2.20007 -4.53629,6.30512 -9.10156,16.98066 -14.73468,24.05603 -3.78844,4.75841 -12.72697,18.2338 -4.11066,36.53274 3.14739,6.68429 -2.74377,20.43636 -10.13189,20.46645 -11.83003,0.0481 -7.28954,-6.39525 -18.03479,-17.74531 -7.69157,-8.12451 -18.59834,-10.96862 -26.02453,-13.20042 -15.13979,-4.54996 3.92944,13.25639 6.7739,28.45617 1.81788,9.7141 -11.64601,11.63547 -17.25318,18.61375 -5.72869,7.12955 -11.433,8.87257 -14.41624,18.5848 -1.19907,3.90371 1.7948,12.12933 1.7948,12.12933 l 44.7251,22.57968 53.12012,-34.21688 z" />
  </g>
</svg>
